#!OML:ASF H:\GeneralSubjects\Female5\Project 1\Capture day 1\Session 1\Female5.ASF
:FULLY-SPECIFIED
:DEGREES
358
root -25.9088 15.7705 4.55672 -177.495 37.6446 -191.376
lowerback 5.32312 3.05182 0.92928
upperback -10.7742 4.6039 -4.10469
thorax -14.4311 2.0951 -5.97517
lowerneck -4.4487 8.25515 18.6473
upperneck 35.0369 17.3305 -9.39975
head 15.5968 10.3816 -4.04168
rclavicle 1.71949e-014 2.38542e-015
rhumerus -58.8295 -12.6427 -60.768
rradius 14.5636
rwrist -17.4335
rhand -29.9499 -30.0103
rfingers 7.12502
rthumb -3.26904 -59.965
lclavicle 1.71949e-014 2.38542e-015
lhumerus -45.7948 -35.0614 101.531
lradius 48.1658
lwrist -1.89474
lhand -21.7836 27.9653
lfingers 7.12502
lthumb 4.6177 57.895
rfemur -21.6681 -18.4825 2.04268
rtibia 27.5827
rfoot -11.5133 1.21499
rtoes -8.92116
lfemur 7.15103 -20.1046 -39.8223
ltibia -6.6088
lfoot -10.2755 16.4339
ltoes -70.1053
359
root -25.9279 15.7954 4.54204 -176.94 37.0918 -191.017
lowerback 4.97911 3.06134 0.598587
upperback -10.863 4.6256 -3.83263
thorax -14.3617 2.17275 -5.46531
lowerneck -4.59059 8.47703 18.6459
upperneck 34.5966 17.655 -9.79671
head 15.5281 10.442 -4.13513
rclavicle 6.77359e-014 1.94809e-014
rhumerus -58.7152 -10.2109 -65.4961
rradius 15.9073
rwrist -19.3451
rhand -28.4185 -28.6695
rfingers 7.12502
rthumb -1.79009 -58.6417
lclavicle 6.77359e-014 1.94809e-014
lhumerus -46.3106 -33.571 100.248
lradius 48.9015
lwrist -0.488151
lhand -21.4319 28.6891
lfingers 7.12502
lthumb 4.95735 58.6111
rfemur -21.4581 -18.0483 2.2391
rtibia 27.1331
rfoot -12.269 0.879293
rtoes -10.5115
lfemur 6.78772 -20.6136 -39.5833
ltibia -6.58401
lfoot -9.95716 16.3796
ltoes -70.0794
360
root -25.945 15.8089 4.53078 -176.513 36.5121 -190.808
lowerback 4.70691 3.0676 0.233205
upperback -10.9092 4.62552 -3.67178
thorax -14.2837 2.23506 -5.06177
lowerneck -4.69292 8.76208 18.5206
upperneck 33.8283 17.8738 -10.0201
head 15.2341 10.4257 -4.16172
rclavicle 1.00038e-013 2.38542e-014
rhumerus -58.615 -7.73947 -70.1562
rradius 17.6187
rwrist -21.0312
rhand -27.1328 -26.8622
rfingers 7.12502
rthumb -0.54838 -56.8413
lclavicle 1.00038e-013 2.38542e-014
lhumerus -46.8041 -32.1597 98.7557
lradius 49.5697
lwrist 0.488473
lhand -21.4395 29.315
lfingers 7.12502
lthumb 4.94996 59.2372
rfemur -21.2265 -17.7183 2.29258
rtibia 26.7789
rfoot -13.174 0.625743
rtoes -12.0926
lfemur 6.40336 -20.7118 -39.3813
ltibia -6.57619
lfoot -9.53253 15.9286
ltoes -70.1051
361
root -25.9619 15.8107 4.52313 -176.161 35.9284 -190.682
lowerback 4.54193 3.09389 -0.0268594
upperback -10.9413 4.64962 -3.66538
thorax -14.236 2.28472 -4.90264
lowerneck -4.78454 9.06766 18.329
upperneck 32.8411 17.9354 -10.019
head 14.7739 10.3333 -4.11891
rclavicle -3.54334e-014 -3.65764e-014
rhumerus -58.535 -5.37978 -74.5621
rradius 19.5738
rwrist -22.3166
rhand -26.0415 -24.9321
rfingers 7.12502
rthumb 0.505677 -54.9113
lclavicle -3.54334e-014 -3.65764e-014
lhumerus -47.2731 -30.9621 97.0658
lradius 50.1011
lwrist 1.06431
lhand -21.7294 29.7596
lfingers 7.12502
lthumb 4.67006 59.6881
rfemur -20.9907 -17.4617 2.27613
rtibia 26.4619
rfoot -14.2286 0.363569
rtoes -13.203
lfemur 6.01779 -20.5291 -39.1967
ltibia -6.60112
lfoot -9.06187 15.2198
ltoes -70.1673
362
root -25.9802 15.8017 4.51938 -175.867 35.3542 -190.621
lowerback 4.47499 3.14965 -0.179941
upperback -10.9601 4.71122 -3.79924
thorax -14.2128 2.3293 -4.97311
lowerneck -4.84353 9.33324 18.2231
upperneck 31.6302 17.8377 -10.0173
head 14.1992 10.1683 -4.12614
rclavicle -1.23197e-013 -1.80894e-014
rhumerus -58.3991 -3.13159 -78.5942
rradius 21.6583
rwrist -22.9671
rhand -25.0395 -23.193
rfingers 7.12502
rthumb 1.47342 -53.1677
lclavicle -1.23197e-013 -1.80894e-014
lhumerus -47.6208 -29.9855 95.1971
lradius 50.3834
lwrist 1.30554
lhand -22.2127 29.9863
lfingers 7.12502
lthumb 4.20341 59.9245
rfemur -20.7822 -17.2788 2.21057
rtibia 26.1815
rfoot -15.4383 0.0712331
rtoes -13.8094
lfemur 5.62868 -20.1228 -39.0309
ltibia -6.65758
lfoot -8.56164 14.3223
ltoes -70.269
363
root -26.0005 15.7838 4.51993 -175.618 34.7988 -190.618
lowerback 4.48642 3.22646 -0.277329
upperback -10.9626 4.79678 -4.02348
thorax -14.2063 2.37161 -5.185
lowerneck -4.94716 9.56445 18.0877
upperneck 30.3632 17.6171 -9.88697
head 13.5901 9.95205 -4.09989
rclavicle -3.75703e-014 -3.598e-014
rhumerus -58.1298 -0.951326 -82.0901
rradius 23.7298
rwrist -22.5482
rhand -23.8918 -21.7926
rfingers 7.12502
rthumb 2.58188 -51.7567
lclavicle -3.75703e-014 -3.598e-014
lhumerus -47.7308 -29.1046 93.1705
lradius 50.2765
lwrist 1.26147
lhand -22.9291 30.0189
lfingers 7.12502
lthumb 3.51153 59.9697
rfemur -20.6264 -17.1555 2.10666
rtibia 25.9443
rfoot -16.785 -0.248179
rtoes -14.187
lfemur 5.21942 -19.5262 -38.8796
ltibia -6.72609
lfoot -8.09156 13.2423
ltoes -70.357
364
root -26.0222 15.7595 4.52499 -175.412 34.2674 -190.66
lowerback 4.57931 3.31104 -0.350025
upperback -10.952 4.88799 -4.29701
thorax -14.2293 2.40847 -5.47403
lowerneck -5.02333 9.72951 18.063
upperneck 28.998 17.3146 -9.86695
head 12.9672 9.70087 -4.15205
rclavicle -1.39149e-015 1.89839e-014
rhumerus -57.7165 1.29397 -85.088
rradius 25.719
rwrist -21.1505
rhand -22.7114 -20.668
rfingers 7.12502
rthumb 3.7218 -50.6152
lclavicle -1.39149e-015 1.89839e-014
lhumerus -47.5265 -28.1536 90.9944
lradius 49.6456
lwrist 0.979243
lhand -23.7892 29.953
lfingers 7.12502
lthumb 2.68093 59.9159
rfemur -20.5146 -17.0623 1.97211
rtibia 25.7399
rfoot -18.1968 -0.579336
rtoes -14.5068
lfemur 4.78708 -18.7526 -38.734
ltibia -6.77773
lfoot -7.67345 11.9869
ltoes -70.4086
365
root -26.0442 15.7319 4.534 -175.25 33.7613 -190.739
lowerback 4.74072 3.38778 -0.451117
upperback -10.9207 4.96012 -4.56758
thorax -14.2745 2.43688 -5.74705
lowerneck -5.10054 9.84841 18.0754
upperneck 27.623 16.9857 -9.91889
head 12.3699 9.43854 -4.24025
rclavicle 3.53588e-014 -9.69075e-015
rhumerus -57.1422 3.69396 -87.5579
rradius 27.5452
rwrist -18.9213
rhand -21.5684 -19.7092
rfingers 7.12502
rthumb 4.82553 -49.6343
lclavicle 3.53588e-014 -9.69075e-015
lhumerus -46.9381 -26.9135 88.6632
lradius 48.3808
lwrist 0.486821
lhand -24.769 29.9077
lfingers 7.12502
lthumb 1.73465 59.8804
rfemur -20.4205 -16.9801 1.80812
rtibia 25.552
rfoot -19.5963 -0.929314
rtoes -15.0783
lfemur 4.34522 -17.8777 -38.6039
ltibia -6.78489
lfoot -7.31458 10.6287
ltoes -70.4187
366
root -26.0661 15.7044 4.54608 -175.118 33.2831 -190.839
lowerback 4.94591 3.45277 -0.584812
upperback -10.877 5.01083 -4.80477
thorax -14.34 2.45858 -5.96578
lowerneck -5.16486 9.93053 18.0582
upperneck 26.3267 16.664 -9.9707
head 11.8184 9.18734 -4.32006
rclavicle 5.54027e-014 -3.40419e-014
rhumerus -56.4358 6.2919 -89.5214
rradius 29.1597
rwrist -16.337
rhand -20.5672 -18.7496
rfingers 7.12502
rthumb 5.79225 -48.6504
lclavicle 5.54027e-014 -3.40419e-014
lhumerus -45.9724 -25.1719 86.1813
lradius 46.424
lwrist -0.266897
lhand -25.7785 30.0062
lfingers 7.12502
lthumb 0.759687 59.9846
rfemur -20.3147 -16.8434 1.62085
rtibia 25.3243
rfoot -20.9111 -1.33256
rtoes -15.9878
lfemur 3.8977 -17.0202 -38.496
ltibia -6.73142
lfoot -7.06903 9.20593
ltoes -70.316
367
root -26.0866 15.6804 4.56015 -175 32.8338 -190.932
lowerback 5.18049 3.51429 -0.724169
upperback -10.8249 5.05517 -5.00624
thorax -14.4183 2.47831 -6.14356
lowerneck -5.20112 9.98745 17.9908
upperneck 25.1622 16.3733 -9.97653
head 11.3231 8.96457 -4.36834
rclavicle 5.53988e-014 -5.30755e-014
rhumerus -55.5882 9.02659 -91.0133
rradius 30.4919
rwrist -13.8919
rhand -20.1325 -17.8352
rfingers 7.12502
rthumb 6.21188 -47.7241
lclavicle 5.53988e-014 -5.30755e-014
lhumerus -44.6847 -22.7856 83.5322
lradius 43.8002
lwrist -1.35934
lhand -26.7353 30.3005
lfingers 7.12502
lthumb -0.164442 60.2801
rfemur -20.1656 -16.5937 1.43144
rtibia 25.0094
rfoot -22.0742 -1.80559
rtoes -17.0217
lfemur 3.45938 -16.2613 -38.402
ltibia -6.62137
lfoot -6.88187 7.85345
ltoes -70.143
368
root -26.1048 15.6624 4.5749 -174.892 32.4114 -190.994
lowerback 5.43232 3.59069 -0.815714
upperback -10.7637 5.12339 -5.19924
thorax -14.4907 2.50377 -6.34386
lowerneck -5.25794 10.0371 17.7763
upperneck 24.2408 16.1192 -9.77314
head 10.9074 8.78117 -4.30818
rclavicle 2.59414e-014 -2.45499e-014
rhumerus -54.5644 11.743 -92.0686
rradius 31.4632
rwrist -11.9438
rhand -20.4931 -17.1907
rfingers 7.12502
rthumb 5.86379 -47.0895
lclavicle 2.59414e-014 -2.45499e-014
lhumerus -43.161 -19.6858 80.6682
lradius 40.6179
lwrist -2.84926
lhand -27.5801 30.7074
lfingers 7.12502
lthumb -0.980394 60.6849
rfemur -19.9628 -16.256 1.26673
rtibia 24.6223
rfoot -23.0342 -2.33128
rtoes -18.0317
lfemur 3.06527 -15.6828 -38.3193
ltibia -6.474
lfoot -6.74065 6.6676
ltoes -69.9247
